<svg width="130" height="130" viewBox="0 0 130 130" fill="none" xmlns="http://www.w3.org/2000/svg">
<circle cx="65" cy="65" r="65" fill="black"/>
<path d="M53.2502 72.0332H76.2502V92.0332C76.2502 94.2423 74.4594 96.0332 72.2502 96.0332H57.2502C55.0411 96.0332 53.2502 94.2423 53.2502 92.0332V72.0332Z" fill="white"/>
<path d="M53.2502 92.0332V67.0621C53.2502 64.4229 53.9465 61.8305 55.2688 59.5465L56.8096 56.8852C58.087 54.6788 58.8518 52.2134 59.0473 49.6714L59.7502 40.5332V39.0332H70.2502V40.5332L71.3217 49.8192C71.6049 52.2739 72.3406 54.6549 73.4915 56.8416L75.5994 60.8466C76.3553 62.2828 76.7502 63.8812 76.7502 65.5041V91.0332C76.7502 93.7946 74.5117 96.0332 71.7502 96.0332H57.2502C55.0411 96.0332 53.2502 94.2423 53.2502 92.0332Z" stroke="white" stroke-width="3"/>
<path d="M57.8206 38.2529H58.5733H72.1799C72.7322 38.2529 73.1799 37.8052 73.1799 37.2529V34.9663C73.1799 34.414 72.7322 33.9663 72.1799 33.9663H57.8206C57.2683 33.9663 56.8206 34.414 56.8206 34.9663V37.2529C56.8206 37.8052 57.2683 38.2529 57.8206 38.2529Z" fill="white"/>
</svg>
