<svg width="1728" height="259" viewBox="0 0 1728 259" fill="none" xmlns="http://www.w3.org/2000/svg">
<path d="M-1915.65 7.1454C-1914.16 4.43626 -1859.03 6.95272 -1850.55 7.1454C-1769.59 8.98382 -1693.53 11.6648 -1611.46 10.3059C-1557.89 9.41891 -1506.02 7.1454 -1452.07 7.1454C-1381.25 7.1454 -1312.17 3.8022 -1241.71 2.6595C-1124.61 0.760198 -1003.75 2.55755 -886.332 2.55755C-754.526 2.55755 -746.246 0.298252 -614.377 1.69096C-544.045 2.43375 -474.268 1.58496 -404.023 2.35365C-255.893 3.97464 -215.851 257.818 -67.602 257.17C247.483 255.794 348.768 227.431 547.037 257.17C629.576 255.788 841.439 254.491 924.544 255.539C977.117 256.202 1028.59 257.17 1081.24 257.17C1133.53 257.17 1192.48 257.688 1244.23 255.845C1265.22 255.097 1288.83 254.721 1309.33 253.5C1334.91 251.977 1752.81 255.206 1775.35 253.5" stroke="#EFEFEF" stroke-width="2" stroke-linecap="round"/>
</svg>
